<mxfile host="app.diagrams.net" agent="Mozilla/5.0 (X11; Linux x86_64) AppleWebKit/537.36 (KHTML, like Gecko) Chrome/139.0.0.0 Safari/537.36" version="28.1.1">
  <diagram name="Página-1" id="MAk3DOyfZkQUfRzELnZQ">
    <mxGraphModel dx="1148" dy="522" grid="1" gridSize="10" guides="1" tooltips="1" connect="1" arrows="1" fold="1" page="1" pageScale="1" pageWidth="827" pageHeight="1169" math="0" shadow="0">
      <root>
        <mxCell id="0" />
        <mxCell id="1" parent="0" />
        <mxCell id="o_a78I-VUHKlkryNKOLD-4" value="" style="edgeStyle=orthogonalEdgeStyle;rounded=0;orthogonalLoop=1;jettySize=auto;html=1;" edge="1" parent="1" source="r95Tsj0DEO4Ul2Uu9qXz-1" target="o_a78I-VUHKlkryNKOLD-1">
          <mxGeometry relative="1" as="geometry" />
        </mxCell>
        <mxCell id="r95Tsj0DEO4Ul2Uu9qXz-1" value="Início" style="ellipse;whiteSpace=wrap;html=1;" parent="1" vertex="1">
          <mxGeometry x="40" y="20" width="120" height="80" as="geometry" />
        </mxCell>
        <mxCell id="o_a78I-VUHKlkryNKOLD-7" value="" style="edgeStyle=orthogonalEdgeStyle;rounded=0;orthogonalLoop=1;jettySize=auto;html=1;" edge="1" parent="1" source="o_a78I-VUHKlkryNKOLD-1" target="o_a78I-VUHKlkryNKOLD-6">
          <mxGeometry relative="1" as="geometry" />
        </mxCell>
        <mxCell id="o_a78I-VUHKlkryNKOLD-1" value="&amp;nbsp; &amp;nbsp; Informe a primeira nota:" style="shape=display;whiteSpace=wrap;html=1;" vertex="1" parent="1">
          <mxGeometry x="45" y="160" width="110" height="60" as="geometry" />
        </mxCell>
        <mxCell id="o_a78I-VUHKlkryNKOLD-9" value="" style="edgeStyle=orthogonalEdgeStyle;rounded=0;orthogonalLoop=1;jettySize=auto;html=1;" edge="1" parent="1" source="o_a78I-VUHKlkryNKOLD-6" target="o_a78I-VUHKlkryNKOLD-8">
          <mxGeometry relative="1" as="geometry" />
        </mxCell>
        <mxCell id="o_a78I-VUHKlkryNKOLD-6" value="&lt;div&gt;&lt;br&gt;&lt;/div&gt;nota1" style="shape=manualInput;whiteSpace=wrap;html=1;" vertex="1" parent="1">
          <mxGeometry x="60" y="260" width="80" height="80" as="geometry" />
        </mxCell>
        <mxCell id="o_a78I-VUHKlkryNKOLD-11" value="" style="edgeStyle=orthogonalEdgeStyle;rounded=0;orthogonalLoop=1;jettySize=auto;html=1;" edge="1" parent="1" source="o_a78I-VUHKlkryNKOLD-8" target="o_a78I-VUHKlkryNKOLD-10">
          <mxGeometry relative="1" as="geometry" />
        </mxCell>
        <mxCell id="o_a78I-VUHKlkryNKOLD-8" value="&amp;nbsp; &amp;nbsp; Informe a segunda nota:" style="shape=display;whiteSpace=wrap;html=1;" vertex="1" parent="1">
          <mxGeometry x="45" y="390" width="110" height="60" as="geometry" />
        </mxCell>
        <mxCell id="o_a78I-VUHKlkryNKOLD-15" value="" style="edgeStyle=orthogonalEdgeStyle;rounded=0;orthogonalLoop=1;jettySize=auto;html=1;" edge="1" parent="1" source="o_a78I-VUHKlkryNKOLD-10" target="o_a78I-VUHKlkryNKOLD-13">
          <mxGeometry relative="1" as="geometry" />
        </mxCell>
        <mxCell id="o_a78I-VUHKlkryNKOLD-10" value="&lt;div&gt;&lt;br&gt;&lt;/div&gt;nota2" style="shape=manualInput;whiteSpace=wrap;html=1;" vertex="1" parent="1">
          <mxGeometry x="60" y="490" width="80" height="80" as="geometry" />
        </mxCell>
        <mxCell id="o_a78I-VUHKlkryNKOLD-16" value="" style="edgeStyle=orthogonalEdgeStyle;rounded=0;orthogonalLoop=1;jettySize=auto;html=1;" edge="1" parent="1" source="o_a78I-VUHKlkryNKOLD-13" target="o_a78I-VUHKlkryNKOLD-14">
          <mxGeometry relative="1" as="geometry" />
        </mxCell>
        <mxCell id="o_a78I-VUHKlkryNKOLD-13" value="&amp;nbsp; &amp;nbsp; &amp;nbsp;Informe a terceira nota:" style="shape=display;whiteSpace=wrap;html=1;" vertex="1" parent="1">
          <mxGeometry x="45" y="620" width="110" height="60" as="geometry" />
        </mxCell>
        <mxCell id="o_a78I-VUHKlkryNKOLD-19" value="" style="edgeStyle=orthogonalEdgeStyle;rounded=0;orthogonalLoop=1;jettySize=auto;html=1;" edge="1" parent="1" source="o_a78I-VUHKlkryNKOLD-14" target="o_a78I-VUHKlkryNKOLD-18">
          <mxGeometry relative="1" as="geometry" />
        </mxCell>
        <mxCell id="o_a78I-VUHKlkryNKOLD-14" value="&lt;div&gt;&lt;br&gt;&lt;/div&gt;nota3" style="shape=manualInput;whiteSpace=wrap;html=1;" vertex="1" parent="1">
          <mxGeometry x="60" y="720" width="80" height="80" as="geometry" />
        </mxCell>
        <mxCell id="o_a78I-VUHKlkryNKOLD-21" value="" style="edgeStyle=orthogonalEdgeStyle;rounded=0;orthogonalLoop=1;jettySize=auto;html=1;" edge="1" parent="1" source="o_a78I-VUHKlkryNKOLD-18" target="o_a78I-VUHKlkryNKOLD-20">
          <mxGeometry relative="1" as="geometry" />
        </mxCell>
        <mxCell id="o_a78I-VUHKlkryNKOLD-18" value="média = (nota1 + nota2 + nota3) / 3" style="rounded=0;whiteSpace=wrap;html=1;" vertex="1" parent="1">
          <mxGeometry x="240" y="730" width="120" height="60" as="geometry" />
        </mxCell>
        <mxCell id="o_a78I-VUHKlkryNKOLD-24" value="" style="edgeStyle=orthogonalEdgeStyle;rounded=0;orthogonalLoop=1;jettySize=auto;html=1;" edge="1" parent="1" source="o_a78I-VUHKlkryNKOLD-20" target="o_a78I-VUHKlkryNKOLD-22">
          <mxGeometry relative="1" as="geometry" />
        </mxCell>
        <mxCell id="o_a78I-VUHKlkryNKOLD-20" value="média" style="shape=display;whiteSpace=wrap;html=1;" vertex="1" parent="1">
          <mxGeometry x="245" y="610" width="110" height="60" as="geometry" />
        </mxCell>
        <mxCell id="o_a78I-VUHKlkryNKOLD-26" value="" style="edgeStyle=orthogonalEdgeStyle;rounded=0;orthogonalLoop=1;jettySize=auto;html=1;" edge="1" parent="1" source="o_a78I-VUHKlkryNKOLD-22" target="o_a78I-VUHKlkryNKOLD-25">
          <mxGeometry relative="1" as="geometry" />
        </mxCell>
        <mxCell id="o_a78I-VUHKlkryNKOLD-28" value="" style="edgeStyle=orthogonalEdgeStyle;rounded=0;orthogonalLoop=1;jettySize=auto;html=1;" edge="1" parent="1" source="o_a78I-VUHKlkryNKOLD-22" target="o_a78I-VUHKlkryNKOLD-27">
          <mxGeometry relative="1" as="geometry" />
        </mxCell>
        <mxCell id="o_a78I-VUHKlkryNKOLD-22" value="A média é maior&amp;nbsp;&lt;div&gt;ou igual a 7?&lt;/div&gt;" style="rhombus;whiteSpace=wrap;html=1;" vertex="1" parent="1">
          <mxGeometry x="240" y="450" width="120" height="110" as="geometry" />
        </mxCell>
        <mxCell id="o_a78I-VUHKlkryNKOLD-34" value="" style="edgeStyle=orthogonalEdgeStyle;rounded=0;orthogonalLoop=1;jettySize=auto;html=1;" edge="1" parent="1" source="o_a78I-VUHKlkryNKOLD-25" target="o_a78I-VUHKlkryNKOLD-32">
          <mxGeometry relative="1" as="geometry" />
        </mxCell>
        <mxCell id="o_a78I-VUHKlkryNKOLD-25" value="Aprovado" style="shape=display;whiteSpace=wrap;html=1;" vertex="1" parent="1">
          <mxGeometry x="430" y="475" width="110" height="60" as="geometry" />
        </mxCell>
        <mxCell id="o_a78I-VUHKlkryNKOLD-33" value="" style="edgeStyle=orthogonalEdgeStyle;rounded=0;orthogonalLoop=1;jettySize=auto;html=1;" edge="1" parent="1" source="o_a78I-VUHKlkryNKOLD-27" target="o_a78I-VUHKlkryNKOLD-32">
          <mxGeometry relative="1" as="geometry" />
        </mxCell>
        <mxCell id="o_a78I-VUHKlkryNKOLD-27" value="Reprovado" style="shape=display;whiteSpace=wrap;html=1;" vertex="1" parent="1">
          <mxGeometry x="245" y="330" width="110" height="60" as="geometry" />
        </mxCell>
        <mxCell id="o_a78I-VUHKlkryNKOLD-30" value="&lt;b&gt;Sim&lt;/b&gt;" style="text;strokeColor=none;align=center;fillColor=none;html=1;verticalAlign=middle;whiteSpace=wrap;rounded=0;" vertex="1" parent="1">
          <mxGeometry x="360" y="470" width="60" height="30" as="geometry" />
        </mxCell>
        <mxCell id="o_a78I-VUHKlkryNKOLD-31" value="Não" style="text;strokeColor=none;align=center;fillColor=none;html=1;verticalAlign=middle;whiteSpace=wrap;rounded=0;" vertex="1" parent="1">
          <mxGeometry x="310" y="405" width="60" height="30" as="geometry" />
        </mxCell>
        <mxCell id="o_a78I-VUHKlkryNKOLD-32" value="Fim" style="ellipse;whiteSpace=wrap;html=1;" vertex="1" parent="1">
          <mxGeometry x="425" y="320" width="120" height="80" as="geometry" />
        </mxCell>
      </root>
    </mxGraphModel>
  </diagram>
</mxfile>
